<svg xmlns="http://www.w3.org/2000/svg" viewBox="0 -8.2 34 34.2" role="img" aria-labelledby="title desc">
  <title id="title">Orca whale fountain icon</title>
  <desc id="desc">A DeepSeek-inspired blue whale mark with a connected water spray.</desc>
  <g fill="#5b7cff">
    <path d="M16.06-2.34c0-.48.4-.88.88-.88s.88.4.88.88V2c0 .48-.4.88-.88.88s-.88-.4-.88-.88v-4.34Z"/>
    <path d="M16.8-3.64c-1.02-1.02-2.46-1.68-4.32-1.99.86-1.18 2.2-1.73 4.02-1.66 1.55.06 2.52.99 2.37 2.08-.12.87-.88 1.48-2.07 1.57Z"/>
    <path d="M18.2-3.48c.34-1.77 1.53-3.04 3.58-3.82.37 1.6-.25 2.93-1.86 3.99-.76.5-1.34.44-1.72-.17Z"/>
    <path d="M15.24-3.03c-1.47-.72-3.04-.78-4.72-.18.36-1.42 1.45-2.24 3.08-2.32 1.47-.08 2.31.79 2.36 1.99.01.4-.23.58-.72.51Z"/>
    <path d="M33.615 2.598c-.36-.176-.515.16-.726.33-.072.055-.132.127-.193.193-.526.562-1.14.93-1.943.887-1.174-.067-2.176.302-3.062 1.2-.188-1.107-.814-1.767-1.766-2.191-.498-.22-1.002-.441-1.35-.92-.244-.341-.31-.721-.433-1.096-.077-.226-.154-.457-.415-.496-.282-.044-.393.193-.504.391-.443.81-.614 1.702-.598 2.605.04 2.033.898 3.652 2.603 4.803.193.132.243.264.182.457-.116.397-.254.782-.376 1.179-.078.253-.194.308-.465.198-.936-.391-1.744-.97-2.458-1.669-1.213-1.173-2.31-2.467-3.676-3.48a16.254 16.254 0 0 0-.975-.668c-1.395-1.354.183-2.467.548-2.599.382-.138.133-.612-1.102-.606-1.234.005-2.364.42-3.803.97a4.34 4.34 0 0 1-.66.193 13.577 13.577 0 0 0-4.08-.143c-2.667.297-4.799 1.558-6.365 3.712C.116 8.436-.327 11.378.215 14.444c.57 3.233 2.22 5.91 4.755 8.002 2.63 2.17 5.658 3.233 9.113 3.03 2.098-.122 4.434-.403 7.07-2.633.664.33 1.362.463 2.518.562.892.083 1.75-.044 2.414-.182 1.04-.22.97-1.184.593-1.36-3.05-1.421-2.38-.843-2.99-1.311 1.55-1.834 3.918-5.093 4.648-9.531.072-.49.164-1.18.153-1.577-.006-.242.05-.336.326-.364a5.903 5.903 0 0 0 2.187-.672c1.977-1.08 2.774-2.853 2.962-4.978.028-.325-.006-.661-.35-.832ZM16.39 21.73c-2.956-2.324-4.39-3.089-4.982-3.056-.554.033-.454.667-.332 1.08.127.407.293.688.526 1.046.16.237.271.59-.161.854-.952.589-2.607-.198-2.685-.237-1.927-1.134-3.537-2.632-4.673-4.68-1.096-1.972-1.733-4.087-1.838-6.345-.028-.545.133-.738.676-.837A6.643 6.643 0 0 1 5.086 9.5c3.017.441 5.586 1.79 7.74 3.927 1.229 1.217 2.159 2.671 3.116 4.092 1.02 1.509 2.115 2.946 3.51 4.125.494.413.887.727 1.263.958-1.135.127-3.028.154-4.324-.87v-.002Zm1.417-9.114a.434.434 0 0 1 .587-.408c.06.022.117.055.16.105a.426.426 0 0 1 .122.303.434.434 0 0 1-.437.435.43.43 0 0 1-.432-.435Zm4.402 2.257c-.283.116-.565.215-.836.226-.421.022-.88-.149-1.13-.358-.387-.325-.664-.506-.78-1.073-.05-.242-.022-.617.022-.832.1-.463-.011-.76-.338-1.03-.265-.22-.603-.28-.974-.28a.8.8 0 0 1-.36-.11c-.155-.078-.283-.27-.161-.508.039-.077.227-.264.271-.297.504-.286 1.085-.193 1.623.022.498.204.875.578 1.417 1.107.553.639.653.815.968 1.295.25.374.476.76.632 1.2.094.275-.028.5-.354.638Z"/>
  </g>
</svg>
